<svg width="1280" height="2127" viewBox="0 0 1280 2127" fill="none" xmlns="http://www.w3.org/2000/svg">
<path d="M1063.71 750.443C1398.14 784.54 1731.58 1362.79 1731.58 1362.79C1570.27 1245.05 1621.61 1184.16 1324.64 1021.23C940.191 816.593 1008.01 1036.26 622.927 919.91C315.746 774.592 311.196 760.386 224.807 690.644C186.42 654.009 240.783 678.683 254.669 685.173C575.637 835.184 607.727 790.145 769.928 779.079C929.264 768.209 931.773 736.991 1063.71 750.443Z" fill="url(#paint0_linear_9354_116122)" fill-opacity="0.7"/>
<path d="M659.583 858.684C990.377 917.751 1280.17 1519.73 1280.17 1519.73C1128.06 1390.16 1183.7 1333.25 899.717 1148.42C531.61 915.44 583.042 1139.71 207.812 994.775C-87.6483 826.766 -91.1386 812.25 -172.108 736.189C-207.671 696.759 -155.306 725.451 -141.944 732.967C166.912 906.69 202.208 864.152 364.677 865.257C524.279 866.342 529.075 835.38 659.583 858.684Z" fill="url(#paint1_linear_9354_116122)" fill-opacity="0.41"/>
<path d="M871.118 879.541C1193.82 972.804 1420.23 1602.26 1420.23 1602.26C1282.32 1457.42 1343.44 1406.57 1080.12 1192.99C738.129 922.71 766.295 1151.32 408.213 967.954C131.77 769.922 129.787 755.108 57.1004 670.954C25.7915 627.997 74.8979 662.015 87.4078 670.889C376.58 876.006 416.01 837.336 577.362 855.362C735.866 873.07 743.801 842.747 871.118 879.541Z" fill="url(#paint2_linear_9354_116122)" fill-opacity="0.7"/>
<defs>
<linearGradient id="paint0_linear_9354_116122" x1="1012.35" y1="1242.66" x2="1414.09" y2="326.564" gradientUnits="userSpaceOnUse">
<stop offset="0.106282" stop-color="#00358B" stop-opacity="0"/>
<stop offset="0.266023" stop-color="#95B2FF"/>
<stop offset="0.482017" stop-color="#04308A" stop-opacity="0"/>
</linearGradient>
<linearGradient id="paint1_linear_9354_116122" x1="572.192" y1="1345.99" x2="1041.53" y2="462.789" gradientUnits="userSpaceOnUse">
<stop offset="0.106282" stop-color="#00358B" stop-opacity="0"/>
<stop offset="0.266023" stop-color="#00218D"/>
<stop offset="0.482017" stop-color="#04308A" stop-opacity="0"/>
</linearGradient>
<linearGradient id="paint2_linear_9354_116122" x1="734.404" y1="1355.54" x2="1293.16" y2="526.534" gradientUnits="userSpaceOnUse">
<stop offset="0.106282" stop-color="#00358B" stop-opacity="0"/>
<stop offset="0.266023" stop-color="#95B2FF"/>
<stop offset="0.482017" stop-color="#04308A" stop-opacity="0"/>
</linearGradient>
</defs>
</svg>
