<svg width="699" height="400" viewBox="0 0 699 400" fill="none" xmlns="http://www.w3.org/2000/svg">
<path d="M699 247.828C697.566 247.788 696.115 247.896 694.628 248.055C683.588 249.226 673.127 253.792 662.052 258.631C651.942 263.046 641.485 267.611 630.358 269.491C601.062 274.454 574.063 263.783 556.309 240.254C541.293 220.357 532.711 195.392 524.412 171.248C522.623 166.035 520.844 160.856 519.01 155.77C511.486 134.889 500.641 108.487 483.427 89.5202C469.123 73.7557 450.892 60.5128 430.701 51.2239C394.138 34.398 348.453 32.4431 329.899 77.396C323.207 93.6127 322.323 113.647 327.53 130.99C330.602 141.207 337.144 154.913 350.886 162.205C364.587 169.482 382.116 166.382 393.502 154.675C400.088 147.908 402.65 136.744 400.027 126.238C397.522 116.211 391.065 109.449 382.721 108.093C381.29 108.163 377.606 108.897 374.995 109.717C374.867 110.112 374.712 110.498 374.526 110.872C372.765 114.417 368.959 115.561 366.008 113.444C362.053 110.588 361.653 106.053 362.514 103.04C365.249 93.4393 383.832 93.1549 383.962 93.2084C397.272 95.1725 407.984 106.18 411.916 121.934C415.955 138.121 411.891 155.44 401.559 166.056C386.435 181.589 364.066 185.545 345.884 175.895C332.028 168.542 321.365 154.404 315.858 136.081C309.518 114.971 310.613 90.5411 318.787 70.7358C329.05 45.8596 347.273 30.5547 371.476 26.4807C372.567 26.2979 373.708 26.2185 374.822 26.08C366.538 11.9935 356.508 7.14048 340.557 3.23996C328.402 0.253191 316.458 4.05961 303.819 8.08381C294.254 11.126 284.359 14.2732 273.958 14.5243C254.207 15.0356 234.126 9.78205 216.346 5.18191C195.937 -0.103076 179.754 -1.30112 165.446 1.38476C142.394 5.71723 123.593 25.4358 112.097 40.7665C138.601 38.3151 165.272 43.7699 181.729 63.9002L183.508 66.0765C195.424 80.6891 205.714 93.31 222.052 97.888C228.84 99.7893 235.799 99.6822 243.169 99.5585C252.81 99.3998 262.802 99.2374 273.025 103.705C303.572 117.049 324.091 153.623 324.083 194.712C324.08 228.682 305.722 259.151 279.446 268.806C262.148 275.169 246.515 268.898 231.406 262.83C219.046 257.865 207.369 253.168 195.201 255.413C188.684 256.613 182.444 258.538 176.408 260.399C160.181 265.404 143.396 270.585 123.512 260.163C104.795 250.363 91.7852 231.318 89.5546 210.47C86.5365 182.348 104.861 157.274 124.523 147.042C138.904 139.551 154.877 138.765 167.237 144.947C176.741 149.693 183.78 158.351 187.603 169.982C188.863 173.824 187.304 178.169 184.116 179.688C180.943 181.202 177.327 179.33 176.062 175.489C173.468 167.597 168.901 161.969 162.485 158.762C153.305 154.181 140.641 154.945 129.444 160.773C114.049 168.784 99.6368 187.77 101.863 208.553C103.867 227.272 116.918 240.402 128.459 246.449C144.444 254.819 157.834 250.689 173.335 245.912C179.662 243.961 186.204 241.943 193.328 240.629C208.435 237.843 222.122 243.331 235.334 248.642C249.202 254.211 262.301 259.471 275.826 254.503C296.591 246.872 311.667 221.724 311.671 194.711C311.678 159.894 294.449 128.974 268.795 117.767C260.711 114.238 252.294 114.378 243.335 114.515C235.561 114.638 227.5 114.773 219.24 112.458C199.388 106.896 187.376 92.1599 174.655 76.5615L172.889 74.4C147.692 43.5835 90.0801 54.8439 59.0796 72.1498C30.9087 87.8774 16.6976 124.678 7.46413 154.978C-6.75459 201.637 -0.366037 258.154 24.128 302.472C36.1253 324.177 51.758 341.621 69.3349 352.924C81.4686 360.724 94.9642 365.222 109.439 366.297C115.006 366.708 120.716 366.226 126.757 365.711C135.767 364.942 145.081 364.151 154.411 366.444C165.014 369.049 174.36 374.989 183.396 380.734C190.512 385.255 197.231 389.526 204.387 392.177C221.666 398.575 239.44 401.06 257.288 399.59C281.459 397.584 304.067 389.371 322.674 375.836C338.832 364.078 350.627 346.609 363.116 328.116C373.246 313.107 383.728 297.588 396.811 285.279C414.998 268.171 439.343 260.676 461.93 265.213C480.973 269.046 493.597 283.551 505.807 297.58C509.484 301.81 513.29 306.179 517.166 310.107C536.374 329.577 559.888 340.062 583.352 339.545C603.923 339.117 622.526 329.403 640.232 309.851C645.424 304.117 650.475 297.16 655.824 289.8C667.86 273.223 681.157 254.907 699 247.828ZM470.902 231.951C469.717 235.829 466.138 237.81 462.93 236.378C427.651 220.674 386.942 234.63 354.022 273.701L353.218 274.655C326.767 306.053 294.564 344.287 254.085 344.287C249.071 344.287 243.926 343.7 238.65 342.439C230.196 340.422 222.237 336.623 214.539 332.953C204.505 328.166 195.027 323.645 185.144 323.208C181.721 323.055 179.046 319.586 179.172 315.459C179.301 311.333 182.15 308.158 185.605 308.261C197.613 308.797 208.544 314.006 219.11 319.047C226.622 322.628 233.717 326.014 241.067 327.769C282.452 337.664 315.427 298.528 344.508 264.001L345.312 263.046C381.747 219.808 427.309 204.596 467.231 222.346C470.445 223.777 472.089 228.078 470.902 231.951Z" fill="#013278" fill-opacity="0.25"/>
</svg>
