<svg width="448" height="644" viewBox="0 0 448 644" fill="none" xmlns="http://www.w3.org/2000/svg">
<path d="M214.634 257.436C224.735 253.098 235.379 248.815 245.672 244.674C285.701 228.568 327.091 211.913 353.161 185.959C371.682 167.517 378.739 142.593 370.735 123.933C365.172 110.974 353.127 101.703 334.927 96.3758C322.323 92.6885 309.78 92.4947 298.653 95.817C293.513 97.3515 288.919 99.631 284.937 102.472C300.897 99.4692 317.743 107.303 326.597 117.101C340.757 132.771 339.287 153.583 322.928 168.889C313.449 177.752 292.931 187.225 274.998 187.738C266.46 187.982 259.009 186.197 253.245 182.562C250.787 189.655 245.243 195.905 239.378 201.679C205.171 235.336 156.211 262.193 113.013 285.886C64.9035 312.274 28.2161 346.309 9.70788 381.726C6.57318 387.725 4.0406 393.874 2.05605 400.109C7.38278 389.889 14.4415 379.919 23.2615 370.321C69.8648 319.609 150.136 285.134 214.634 257.436Z" fill="#013278" fill-opacity="0.25"/>
<path d="M69.1205 537.407C73.34 539.708 77.6631 541.995 82.0201 544.297C99.9826 553.796 118.556 563.618 132.805 576.028C154.434 594.879 157.379 619.25 141.929 643.396C156.54 632.155 168.389 616.586 167.906 600.503C167.541 587.042 160.354 571.699 148.192 558.411C138.183 547.478 124.109 539.854 109.211 531.782C100.44 527.029 91.3701 522.117 83.1455 516.445C67.9388 505.963 57.2357 494.824 51.3317 483.336C45.5156 472.016 42.6109 460.762 42.6109 449.622C42.6064 424.764 57.0621 400.433 85.8652 376.947C128.299 342.349 188.78 320.494 221.054 310.547C227.163 308.665 233.28 306.796 239.398 304.928C249.33 301.898 259.259 298.864 269.148 295.772C297.726 286.831 331.042 275.893 361.444 262.544C362.614 262.031 363.766 261.298 364.986 260.521C366.333 259.664 367.862 258.692 369.673 257.864C389.947 248.584 402.235 236.828 416.463 223.213L416.962 222.737C431.778 208.559 445.266 194.524 447.535 178.709C449.443 165.437 445.151 152.648 440.621 139.088C437.653 130.216 434.586 121.041 433.463 111.802C432.606 104.748 436.559 99.1419 440.386 93.7415C442.989 90.0665 445.449 86.596 446.256 82.8141C447.81 75.5281 447.709 67.923 445.95 60.2065C442.093 43.2847 430.998 29.3173 414.716 20.877C396.805 11.5924 376.592 11.9101 355.19 12.246C342.674 12.4445 329.731 12.6475 316.852 10.9024C309.241 9.87177 302.726 7.57553 296.425 5.35553C289.842 3.03782 283.624 0.848192 276.665 0.264946C264.775 -0.729014 250.998 1.1017 238.866 5.28825C220.529 11.6154 206.596 24.0805 202.503 37.8158C200.338 45.0956 202.12 52.4517 204.01 60.2385C205.487 66.3214 207.014 72.6226 206.556 78.9894C205.872 88.5962 198.311 94.7188 190.999 100.641C186.3 104.446 181.864 108.04 179.209 112.523C174.045 121.246 175.321 134.146 182.615 147.028C187.346 155.382 194.998 155.689 207.676 156.198C210.716 156.32 213.86 156.445 217.144 156.711C236.085 158.245 244.19 164.919 253.572 172.648C255.11 173.913 256.702 175.227 258.409 176.569C262.5 179.786 267.793 181.254 274.59 181.062C288.872 180.653 306.983 172.411 314.942 164.969C328.992 151.83 330.297 133.992 318.185 120.583C312.197 113.955 298.272 106.046 286.069 109.222C276.031 111.831 269.996 120.827 273.404 128.095C274.231 129.86 272.793 131.73 270.195 132.289C267.599 132.848 264.825 131.877 264 130.117C261.907 125.658 262.256 120.832 264.444 116.444C263.668 115.616 263.418 114.574 263.927 113.573C269.615 102.405 280.537 93.9294 294.679 89.7062C308.19 85.6708 323.877 85.8616 338.849 90.2436C359.579 96.3127 373.883 107.318 380.216 122.067C388.993 142.536 381.409 169.721 361.326 189.716C334.023 216.898 291.675 233.939 250.717 250.416C240.485 254.533 229.904 258.789 219.924 263.077C156.272 290.413 77.0564 324.432 31.6439 373.848C6.00699 401.75 -4.29005 432.9 1.62303 464.188C2.78896 468.039 4.16905 471.863 5.77248 475.647C15.7156 499.122 37.0316 519.9 69.1205 537.407Z" fill="#013278" fill-opacity="0.25"/>
<path d="M355.043 432.252C357.646 428.003 360.338 423.606 368.108 418.674C373.288 415.387 378.937 413.801 384.401 412.266C394.895 409.319 403.956 406.776 407.981 391.28C414.846 364.84 382.013 339.281 348.248 332.861C336.217 330.57 327.557 325.172 319.179 319.95C312.659 315.889 306.503 312.05 298.901 309.609C280.6 303.731 267.112 303.908 249.131 310.259C247.891 310.697 246.506 310.737 245.277 310.458C244.668 310.642 244.064 310.832 243.457 311.018C237.35 312.884 231.243 314.75 225.145 316.628C193.638 326.34 134.633 347.642 93.4561 381.217C54.1077 413.304 43.0754 446.925 60.65 481.141C66.0714 491.691 76.0077 501.994 90.186 511.766C97.9957 517.15 106.831 521.936 115.376 526.565C130.272 534.635 145.672 542.98 156.579 554.893C168.148 567.533 175.504 581.969 177.324 595.265C183.248 582.142 184.34 568.616 180.655 555.431C180.472 555.195 180.316 554.944 180.219 554.673C171.183 529.181 157.623 520.841 130.606 504.227C124.266 500.327 117.081 495.908 109.141 490.758C86.6363 476.156 75.4101 460.511 74.8215 442.932C74.8057 442.448 74.7966 441.96 74.7966 441.476C74.7944 425.478 83.6348 409.719 99.8224 396.949C130.854 372.465 184.159 358.937 235.623 362.486C236.01 362.513 236.378 362.577 236.732 362.66C245.142 356.597 256.72 352.36 268.32 351.43C280.077 350.488 290.593 352.87 298.738 358.314C311.491 366.845 315.323 383.832 307.267 396.183C301.469 405.072 290.27 409.89 276.54 409.402C273.821 409.304 271.741 407.789 271.872 405.89C272.014 404.049 274.337 402.635 277.057 402.731C289.296 403.168 295.331 397.943 298.24 393.485C304.557 383.805 301.548 369.587 291.801 363.067C284.305 358.053 275.523 357.578 269.477 358.064C257.739 359.003 245.462 364.42 238.929 371.54C234.797 376.039 234.876 380.525 234.991 385.702C235.072 390.023 235.162 394.488 232.749 399.241C230.663 403.346 227.939 406.66 225.301 409.866C220.792 415.347 216.907 420.035 217.762 427.463C218.763 436.017 226.246 446.63 238.604 450.362C245.275 452.376 252.471 450.695 260.087 448.916C268.539 446.942 278.117 444.702 287.063 448.337C301.181 454.072 318.561 455.703 327.492 452.131C347.858 443.986 351.349 438.286 355.043 432.252Z" fill="#013278" fill-opacity="0.25"/>
<path d="M225.12 389.311C225.152 388.155 225.15 386.987 225.127 385.793C225.035 380.605 224.972 374.766 229.836 368.903C183.621 366.772 134.904 379.528 107.31 401.299C92.2203 413.205 84.2099 427.928 84.6858 442.781C85.2135 458.503 95.4475 472.62 115.97 485.937C116.06 485.997 116.143 486.048 116.233 486.107C104.955 475.617 96.5188 463.932 96.5165 449.269C96.5165 448.402 96.548 447.522 96.6067 446.634C97.8087 428.904 110.284 413.105 131.738 402.14C157.264 389.095 193.02 384.174 225.055 389.295C225.08 389.298 225.098 389.306 225.12 389.311Z" fill="#013278" fill-opacity="0.25"/>
</svg>
