<svg width="816" height="422" viewBox="0 0 816 422" fill="none" xmlns="http://www.w3.org/2000/svg">
<path d="M489.139 219.823C494.637 210.308 500.064 200.281 505.312 190.586C525.724 152.88 546.831 113.892 579.724 89.3353C603.097 71.8885 634.683 65.2416 658.331 72.7807C674.755 78.0214 686.504 89.3672 693.255 106.51C697.928 118.383 698.174 130.198 693.964 140.68C692.019 145.521 689.13 149.848 685.529 153.6C689.335 138.566 679.407 122.698 666.99 114.358C647.131 101.019 620.755 102.404 601.357 117.814C590.124 126.742 578.12 146.069 577.469 162.961C577.16 171.004 579.422 178.023 584.029 183.452C575.039 185.768 567.119 190.989 559.801 196.515C517.146 228.736 483.11 274.855 453.083 315.545C419.64 360.863 376.507 395.421 331.622 412.855C324.019 415.808 316.227 418.194 308.324 420.063C321.277 415.046 333.913 408.397 346.076 400.088C410.345 356.19 454.037 280.577 489.139 219.823Z" fill="#013278" fill-opacity="0.25"/>
<path d="M134.323 356.891C131.407 352.916 128.508 348.844 125.59 344.74C113.553 327.82 101.105 310.324 85.3775 296.903C61.4862 276.529 30.5999 273.754 0 288.308C14.2454 274.545 33.9765 263.383 54.3597 263.838C71.4185 264.182 90.8632 270.952 107.703 282.409C121.56 291.836 131.221 305.094 141.452 319.127C147.475 327.389 153.7 335.933 160.888 343.68C174.172 358.004 188.29 368.086 202.849 373.647C217.195 379.126 231.457 381.862 245.575 381.862C277.079 381.866 307.915 368.25 337.679 341.118C381.525 301.147 409.223 244.176 421.829 213.775C424.215 208.02 426.584 202.259 428.95 196.496C432.791 187.14 436.636 177.787 440.554 168.472C451.886 141.553 465.748 110.171 482.665 81.533C483.316 80.4305 484.244 79.345 485.229 78.1958C486.315 76.9276 487.547 75.4873 488.596 73.7815C500.357 54.684 515.256 43.1088 532.511 29.7066L533.114 29.2371C551.083 15.2804 568.869 2.57498 588.912 0.43794C605.733 -1.35922 621.94 2.68328 639.125 6.95099C650.369 9.74657 661.996 12.6356 673.705 13.6935C682.645 14.5008 689.75 10.7769 696.594 7.17193C701.251 4.72049 705.65 2.40282 710.443 1.64232C719.676 0.178681 729.315 0.274375 739.094 1.93133C760.54 5.56388 778.241 16.0154 788.937 31.3528C800.704 48.224 800.302 67.2641 799.876 87.4237C799.624 99.2136 799.367 111.405 801.579 123.537C802.885 130.706 805.795 136.843 808.608 142.779C811.546 148.979 814.321 154.836 815.06 161.392C816.319 172.591 813.999 185.568 808.694 196.997C800.675 214.27 784.878 227.394 767.47 231.249C758.244 233.289 748.922 231.61 739.053 229.83C731.344 228.439 723.359 227.001 715.29 227.432C703.115 228.076 695.355 235.198 687.85 242.085C683.028 246.512 678.473 250.691 672.792 253.191C661.737 258.056 645.388 256.853 629.063 249.983C618.475 245.527 618.086 238.319 617.441 226.376C617.287 223.513 617.128 220.551 616.791 217.458C614.847 199.616 606.389 191.982 596.594 183.145C594.99 181.696 593.325 180.196 591.625 178.588C587.548 174.734 585.686 169.749 585.93 163.346C586.449 149.893 596.894 132.833 606.325 125.336C622.977 112.102 645.584 110.872 662.577 122.281C670.977 127.921 681 141.039 676.975 152.533C673.668 161.989 662.267 167.673 653.057 164.463C650.82 163.684 648.45 165.039 647.741 167.486C647.033 169.931 648.264 172.544 650.495 173.322C656.145 175.293 662.261 174.964 667.823 172.903C668.871 173.634 670.193 173.87 671.46 173.39C685.615 168.032 696.356 157.744 701.708 144.423C706.822 131.696 706.58 116.92 701.027 102.816C693.335 83.2898 679.388 69.8154 660.696 63.8504C634.755 55.5826 600.303 62.7266 574.963 81.6435C540.514 107.362 518.917 147.252 498.035 185.834C492.818 195.472 487.424 205.439 481.99 214.839C447.346 274.797 404.233 349.416 341.607 392.193C306.245 416.342 266.767 426.041 227.115 420.471C222.235 419.373 217.388 418.073 212.593 416.563C182.843 407.196 156.51 387.118 134.323 356.891Z" fill="#013278" fill-opacity="0.25"/>
<path d="M267.587 87.5617C272.972 85.1103 278.545 82.5738 284.795 75.2556C288.961 70.3761 290.971 65.0547 292.916 59.9076C296.651 50.0232 299.874 41.4878 319.512 37.6959C353.021 31.2296 385.412 62.1572 393.549 93.9622C396.451 105.295 403.294 113.453 409.911 121.344C415.058 127.486 419.923 133.285 423.017 140.446C430.467 157.685 430.242 170.39 422.193 187.327C421.637 188.496 421.587 189.8 421.941 190.958C421.707 191.531 421.467 192.1 421.231 192.672C418.866 198.425 416.502 204.177 414.122 209.921C401.813 239.6 374.816 295.18 332.266 333.967C291.6 371.032 248.992 381.424 205.629 364.87C192.258 359.763 179.201 350.403 166.817 337.048C159.994 329.691 153.928 321.368 148.061 313.319C137.834 299.288 127.258 284.781 112.161 274.508C96.1412 263.611 77.846 256.681 60.9961 254.967C77.6273 249.386 94.7694 248.358 111.478 251.829C111.778 252.002 112.095 252.148 112.44 252.239C144.746 260.751 155.315 273.525 176.372 298.974C181.314 304.945 186.913 311.713 193.44 319.193C211.946 340.391 231.774 350.966 254.052 351.521C254.665 351.535 255.284 351.544 255.898 351.544C276.173 351.546 296.144 343.219 312.328 327.971C343.357 298.74 360.501 248.528 356.004 200.052C355.97 199.686 355.888 199.34 355.784 199.007C363.468 191.085 368.837 180.179 370.016 169.251C371.21 158.178 368.191 148.272 361.291 140.599C350.48 128.586 328.951 124.977 313.299 132.565C302.034 138.027 295.927 148.576 296.546 161.509C296.67 164.07 298.589 166.029 300.997 165.906C303.33 165.772 305.122 163.584 305 161.022C304.447 149.493 311.068 143.809 316.718 141.068C328.986 135.118 347.005 137.952 355.267 147.133C361.622 154.194 362.223 162.466 361.608 168.162C360.418 179.219 353.553 190.783 344.53 196.938C338.827 200.829 333.142 200.755 326.581 200.647C321.105 200.57 315.447 200.485 309.423 202.758C304.22 204.723 300.021 207.289 295.958 209.775C289.011 214.021 283.071 217.681 273.657 216.876C262.815 215.933 249.365 208.885 244.636 197.243C242.084 190.96 244.214 184.181 246.469 177.007C248.971 169.045 251.809 160.024 247.202 151.597C239.934 138.298 237.868 121.926 242.393 113.514C252.717 94.3297 259.94 91.0413 267.587 87.5617Z" fill="#013278" fill-opacity="0.25"/>
<path d="M322.008 209.946C323.473 209.916 324.954 209.918 326.467 209.939C333.042 210.027 340.441 210.086 347.871 205.504C350.573 249.037 334.406 294.926 306.815 320.919C291.726 335.133 273.067 342.678 254.243 342.23C234.319 341.733 216.428 332.093 199.551 312.762C199.475 312.677 199.409 312.598 199.336 312.513C212.629 323.137 227.438 331.084 246.021 331.086C247.121 331.086 248.235 331.056 249.361 331.001C271.83 329.869 291.854 318.117 305.749 297.909C322.281 273.864 328.518 240.183 322.028 210.008C322.024 209.984 322.014 209.967 322.008 209.946Z" fill="#013278" fill-opacity="0.25"/>
</svg>
