<svg width="439" height="130" viewBox="0 0 439 130" fill="none" xmlns="http://www.w3.org/2000/svg">
<path d="M422.17 47.5724C412.423 50.7515 404.484 57.7362 396.806 64.4919C391.718 68.9684 386.912 73.1954 381.609 76.4224C367.791 84.8274 354.958 87.994 343.478 85.8309C336.04 84.4333 328.973 79.1162 320.56 68.5925C320.478 68.49 320.369 68.4444 320.277 68.3556C319.689 64.9088 318.099 61.7479 315.763 59.5826C313.188 57.1929 309.99 56.2873 306.773 57.0288C302.857 57.9332 300.452 60.987 300.648 64.8108C300.735 66.5844 302.036 67.9296 303.613 67.835C305.16 67.7302 306.34 66.2085 306.249 64.4338C306.227 63.9953 307.078 63.5237 307.88 63.3392C309.86 62.8767 311.345 63.7641 312.235 64.5876C313.87 66.1037 314.902 68.6255 314.93 71.169C314.986 76.4474 313.064 80.5104 309.217 83.2442C303.077 87.6045 292.788 87.7992 285.795 83.6884C279.907 80.2268 275.062 74.5794 269.932 68.5982C266.183 64.2254 262.305 59.7045 257.951 56.0834C246.754 46.7694 234.82 41.9364 222.479 41.72C208.363 41.4876 196.718 47.1669 184.422 53.1982C181.875 54.4466 179.306 55.7064 176.694 56.9184C165.247 62.2332 153.837 66.4158 142.779 69.3477C119.487 75.5236 96.1464 77.0694 73.4061 73.9449C60.0411 72.1088 46.6482 68.6324 33.5951 63.6137C18.9616 57.9879 4.37591 50.8939 -9.7291 44.0311C-16.6877 40.6447 -23.8858 37.1432 -30.9537 33.8867C-38.833 30.2543 -46.7631 27.3656 -54.5233 25.3005C-64.2133 22.7239 -73.4862 21.4346 -82.2695 21.4346C-89.8966 21.4346 -97.1542 22.4062 -104 24.3517C-104.046 24.3654 -104.094 24.3813 -104.141 24.395C-82.5794 14.508 -61.2217 11.3311 -39.282 14.7016C-17.5549 18.0413 4.43153 25.1798 25.6918 32.0836C35.3938 35.2342 45.4255 38.4908 55.3073 41.3464C115.423 58.7181 160.602 54.564 193.427 28.6471C218.026 9.22736 244.671 -8.6319 276.154 4.51506C287.152 9.11 296.434 16.7929 306.263 24.9269C313.173 30.6461 320.318 36.5612 328.055 41.2245C346.831 52.5387 370.15 53.9158 392.028 45.0005C393.545 44.3831 395.091 43.7224 396.666 43.0515C409.354 37.6445 422.475 32.0471 433.207 41.4443C435.505 43.457 437.379 45.6588 439.001 48.0861C433.639 45.8661 427.561 45.8171 422.17 47.5724Z" fill="#346AAC"/>
<path d="M-57.4844 41.4884C-72.686 36.9618 -87.9094 34.6996 -102.755 34.6996C-106.869 34.6996 -110.953 34.8864 -115 35.2338C-110.795 33.392 -106.688 31.7483 -102.65 30.6013C-88.7953 26.6613 -73.0306 26.9882 -55.7929 31.5729C-48.3138 33.5617 -40.6609 36.3501 -33.0487 39.8595C-26.0285 43.0944 -18.8583 46.5834 -11.9215 49.9572C2.28188 56.8679 16.9689 64.0131 31.8099 69.7175C45.2227 74.874 58.992 78.4461 72.7354 80.3358C96.1173 83.5502 120.111 81.9658 144.041 75.6189C155.384 72.6118 167.079 68.3267 178.798 62.8855C181.447 61.6564 184.046 60.3818 186.627 59.1163C198.36 53.363 209.505 47.924 222.392 48.1575C229.668 48.2851 236.809 50.2397 243.739 53.9211C243.885 54.0521 244.044 54.1683 244.215 54.2674C254.267 60.0299 259.58 79.5396 258.682 89.9141C258.04 97.3714 256.349 103.903 253.658 109.329C246.891 122.976 232.527 131.406 218.756 129.806C206.395 128.38 195.376 115.474 194.692 101.626C194.3 93.6786 196.392 86.1119 200.288 81.3837C203.557 77.4164 208.035 75.4048 213.597 75.4048C213.961 75.4048 214.306 75.3194 214.626 75.1747C219.662 76.9801 224.025 80.2355 225.503 85.2018C226.586 88.8285 225.507 94.1536 223.099 97.0742C222.226 98.1346 219.383 99.3796 217.228 98.9433C215.992 98.6882 215.739 98.007 215.631 97.7154C215.028 96.0775 213.378 95.3132 211.954 96.0091C210.527 96.7028 209.86 98.5914 210.465 100.227C211.46 102.921 213.508 104.715 216.235 105.278C219.989 106.049 224.794 104.391 227.177 101.496C230.995 96.8657 232.559 88.9652 230.815 83.1196C226.727 69.3986 209.723 65.626 199.508 67.4098C191.33 68.8313 184.01 73.1711 176.933 77.3662C174.084 79.0555 171.39 80.6524 168.652 82.0637C155.321 88.9333 144.913 93.3893 134.907 96.5126C108.078 104.883 81.4551 106.087 53.5132 100.197C32.3801 95.7437 14.5643 83.4807 -4.29736 70.4989C-20.8815 59.0833 -38.0298 47.2793 -57.4844 41.4884Z" fill="#346AAC"/>
</svg>
