<svg width="207" height="307" viewBox="0 0 207 307" fill="none" xmlns="http://www.w3.org/2000/svg">
<path d="M400.821 298.466C389.181 294.925 379.633 288.235 374.625 280.112C370.666 273.692 369.082 266.425 367.551 259.397C366.75 255.725 365.995 252.257 364.926 248.941C359.892 233.327 351.873 224.069 339.689 219.806C327.794 215.643 313.271 215.681 299.849 219.912C293.458 221.927 287.163 224.901 281.078 227.777C265.507 235.134 249.41 242.742 230.056 235.368C210.081 227.756 197.497 207.829 199.452 186.909C200.605 174.58 208.186 158.5 225.645 153.007C233.417 147.465 244.863 145.621 252.339 152.008C255.736 154.911 257.754 159.212 257.737 163.513C257.731 165.179 256.379 166.524 254.714 166.524C254.71 166.524 254.706 166.524 254.702 166.524C253.033 166.517 251.685 165.158 251.691 163.489C251.701 160.942 250.475 158.368 248.411 156.604C243.316 152.251 235.177 154.097 229.898 157.439C229.546 157.881 229.067 158.224 228.496 158.415C228.213 158.631 227.936 158.848 227.68 159.07C224.716 161.64 223.158 165.066 223.044 169.251C222.881 175.322 226.009 182.531 230.828 187.19C239.427 195.499 253.035 198.035 263.929 193.344C267.077 191.988 269.51 189.846 270.128 187.889C270.559 186.521 270.356 184.747 270.14 182.869C269.951 181.218 269.754 179.51 269.926 177.742C270.678 169.982 276.323 166.442 281.304 163.318C282.459 162.594 283.638 161.856 284.787 161.05C287.668 159.03 289.567 156.3 290.431 152.934C292.167 146.158 289.333 138.395 283.697 134.479C282.603 133.72 281.334 133.102 279.99 132.445C277.837 131.395 275.61 130.309 273.66 128.466C271.639 126.555 270.224 123.89 269.571 120.757C269.205 119.002 269.132 117.324 269.059 115.702C268.992 114.167 268.929 112.719 268.616 111.375C267.673 107.314 266.048 104.302 263.502 101.893C260.072 98.6449 255.111 96.6059 249.531 96.1469C244.812 95.7649 240.577 97.3339 236.097 98.9989C232.205 100.446 228.183 101.943 223.611 102.241C215.718 102.762 211.192 98.5159 207.19 94.7749C204.378 92.1479 201.721 89.6659 198.032 88.8909C195.411 88.3409 192.329 88.6039 189.134 89.6549C185.208 90.9469 181.31 93.0249 178.162 95.5069C171.485 100.768 169.218 107.666 172.099 113.96C173.51 117.041 176.631 119.52 180.448 120.592C184.315 121.679 188.219 121.154 191.163 119.162C193.595 117.519 193.613 114.752 192.82 112.711C192.216 111.154 192.987 109.403 194.544 108.799C196.091 108.196 197.848 108.966 198.456 110.521C200.483 115.737 198.912 121.223 194.548 124.171C190.126 127.161 184.394 127.979 178.815 126.413C173.309 124.867 168.742 121.153 166.601 116.477C162.545 107.61 165.54 97.7559 174.419 90.7599C178.111 87.8509 182.664 85.4199 187.245 83.9139C191.452 82.5299 195.612 82.2099 199.276 82.9769C204.615 84.0969 208.176 87.4239 211.317 90.3589C215.022 93.8199 217.972 96.5479 223.218 96.2099C226.904 95.9689 230.345 94.6889 233.99 93.3329C236.676 92.3339 239.417 91.3309 242.339 90.6969C242.003 90.0319 241.903 89.2449 242.132 88.4749C246.343 74.2899 238.381 56.9979 224.004 49.1089C217.123 45.3329 210.621 43.4849 202.118 41.7939C200.551 47.5139 196.54 53.7509 187.899 59.4679C176.051 67.3069 159.824 69.2129 146.561 64.3179C139.077 61.5569 133.764 54.9879 133.023 47.5839C132.352 40.8769 135.589 34.6259 141.683 30.8649C146.516 27.8829 154.092 26.8929 159.714 28.5129C163.484 29.6009 166.263 31.7769 167.747 34.8039C168.483 36.3019 167.863 38.1139 166.364 38.8479C164.87 39.5869 163.056 38.9649 162.32 37.4649C161.596 35.9899 160.155 34.9319 158.038 34.3209C153.581 33.0329 147.837 34.1679 144.86 36.0079C140.718 38.5649 138.596 42.5639 139.039 46.9819C139.551 52.1019 143.327 56.6799 148.656 58.6469C159.995 62.8309 174.425 61.1369 184.563 54.4269C195.221 47.3749 199.099 38.5279 195.777 28.8429C190.214 12.6119 166.876 -1.35406 147.756 0.104938C128.418 1.57994 110.909 12.2439 104.183 26.6399C103.842 27.3679 103.539 28.5099 103.217 29.7189C102.211 33.5149 100.314 40.5789 93.2244 39.1629C82.0654 36.9369 70.2284 41.4159 61.5244 51.1389C54.6534 58.8129 51.2814 68.3349 52.8604 75.2739C58.0194 74.2889 63.3643 74.0259 68.5873 74.6619C77.3933 75.7339 84.0364 80.6469 87.2974 88.4959C90.8774 97.1139 89.5543 107.687 84.0053 114.805C80.3593 119.482 75.3523 122.111 69.5833 122.525C71.6753 130.418 81.1833 134.881 89.4263 137.918C116.202 147.784 148.517 163.855 160.84 200.864C161.367 202.448 160.511 204.16 158.927 204.688C158.61 204.793 158.289 204.843 157.973 204.843C156.706 204.843 155.527 204.041 155.106 202.775C146.125 175.803 125.223 157.551 87.3364 143.591C77.0814 139.812 65.1633 133.956 63.3593 122.146C56.3503 120.68 50.6773 115.033 49.6873 108.364C48.6863 101.599 52.2533 95.9259 58.5643 94.2439C60.1663 93.8169 61.8333 94.7729 62.2623 96.3869C62.6933 98.0009 61.7333 99.6559 60.1193 100.085C55.1683 101.405 55.4593 106.077 55.6663 107.477C56.3113 111.824 60.4343 115.641 65.2553 116.357C72.5773 117.445 76.8954 114.091 79.2374 111.088C83.4254 105.718 84.4424 97.3809 81.7144 90.8149C80.0264 86.7479 76.2494 81.6839 67.8554 80.6619C57.2414 79.3749 46.0143 82.0479 37.8323 87.8269C31.9273 91.9989 30.3723 97.3859 28.5743 103.624C27.1343 108.615 25.6444 113.776 21.7634 118.482C20.5494 119.956 19.2994 121.433 18.0403 122.922C11.0213 131.221 3.76335 139.804 0.910345 149.615C-2.18665 160.262 2.54335 169.888 16.2513 180.823C16.9143 181.352 17.3253 182.136 17.3823 182.983C17.4373 183.83 17.1364 184.662 16.5504 185.275L16.1574 185.687C9.94135 192.18 2.89834 199.538 6.80634 208.683C9.86034 215.824 13.4873 219.522 23.5623 227.729C27.8993 231.262 29.6923 236.534 31.4233 241.633C32.8833 245.931 34.2633 249.99 37.0103 252.71C47.1053 262.705 60.6004 261.406 70.1444 258.554C77.9924 256.209 88.2343 249.748 91.7623 242.393C93.2753 239.241 93.4314 236.284 92.2404 233.352C89.5584 226.745 79.0443 224.67 71.7863 227.29C68.2973 228.55 64.5013 231.203 66.2413 236.676C66.7473 238.267 65.8673 239.966 64.2753 240.472C62.6793 240.976 60.9854 240.097 60.4794 238.506C58.3694 231.861 60.9163 226.026 67.1453 222.747C67.0913 222.19 67.1854 221.613 67.4594 221.079C73.7804 208.758 84.5003 203.399 102.392 203.796C117.641 204.109 133.381 212.522 145.58 226.879C146.2 227.611 160.76 244.933 157.298 256.75C156.472 259.569 154.236 263.312 148.28 265.133C147.985 265.223 147.687 265.266 147.394 265.266C146.101 265.266 144.903 264.428 144.505 263.126C144.017 261.529 144.916 259.84 146.512 259.352C150.178 258.231 151.113 256.361 151.496 255.051C152.42 251.895 151.117 247.429 148.955 242.994C148.74 242.838 148.535 242.662 148.361 242.444C144.148 237.168 132.756 238.409 128.722 241.272C122.519 245.671 121.396 251.441 125.386 258.422C126.012 259.516 126.701 260.591 127.391 261.669C128.965 264.125 130.593 266.664 131.638 269.563C132.61 272.265 132.466 274.974 132.329 277.595C132.121 281.507 131.941 284.886 135.143 288.457C140.236 294.14 144.041 293.405 148.453 292.556C151.786 291.912 155.565 291.181 159.317 293.664C162.143 295.535 164.134 298.029 166.059 300.44C169.892 305.24 172.159 307.685 177.823 306.405C185.247 304.731 185.73 298.568 185.617 289.357C185.603 288.346 185.591 287.358 185.599 286.406C185.727 270.389 200.974 260.202 215.966 258.417C223.884 257.476 231.472 258.561 237.907 261.559C242.291 263.601 245.94 266.556 249.466 269.415C253.445 272.637 257.201 275.681 261.767 277.298C271.138 280.624 276.612 274.562 283.893 264.948C286.182 261.927 288.342 259.075 290.747 256.773C300.763 247.187 314.172 242.138 326.626 243.27C344.812 244.923 352.668 259.381 359.601 272.136C361.49 275.612 363.273 278.895 365.211 281.866C372.507 293.043 388.597 300.372 406.829 299.951C404.821 299.54 402.815 299.073 400.821 298.466ZM239.612 247.777C239.529 247.777 239.447 247.774 239.364 247.767C214.099 245.723 192.294 232.33 181.032 211.941C167.856 188.083 170.681 159.206 188.061 140.085C189.189 138.849 191.101 138.762 192.331 139.881C193.566 141.004 193.657 142.915 192.535 144.15C176.893 161.357 174.398 187.425 186.325 209.018C196.601 227.628 216.612 239.861 239.852 241.741C241.515 241.876 242.754 243.334 242.621 244.998C242.493 246.58 241.17 247.777 239.612 247.777Z" fill="#013278"/>
</svg>
