<svg width="845" height="459" viewBox="0 0 845 459" fill="none" xmlns="http://www.w3.org/2000/svg">
<mask id="path-1-outside-1_7788_41765" maskUnits="userSpaceOnUse" x="0" y="0" width="845" height="459" fill="black">
<rect fill="white" width="845" height="459"/>
<path d="M584.311 2C595.356 2.0001 604.311 10.9544 604.311 22V52.7852H820.755C832.905 52.7852 842.755 62.6349 842.755 74.7852V434.837C842.755 446.987 832.905 456.837 820.755 456.837H24C11.8499 456.837 2.00025 446.987 2 434.837V74.7852C2 72.4963 2.34943 70.289 2.99805 68.2139C2.55035 66.5515 2.31055 64.8038 2.31055 63V22C2.31055 10.9543 11.2649 2 22.3105 2H584.311Z"/>
</mask>
<path d="M584.311 2C595.356 2.0001 604.311 10.9544 604.311 22V52.7852H820.755C832.905 52.7852 842.755 62.6349 842.755 74.7852V434.837C842.755 446.987 832.905 456.837 820.755 456.837H24C11.8499 456.837 2.00025 446.987 2 434.837V74.7852C2 72.4963 2.34943 70.289 2.99805 68.2139C2.55035 66.5515 2.31055 64.8038 2.31055 63V22C2.31055 10.9543 11.2649 2 22.3105 2H584.311Z" fill="#EDF3F6"/>
<path d="M584.311 2V0V0V2ZM604.311 22H606.311H604.311ZM604.311 52.7852H602.311V54.7852H604.311V52.7852ZM820.755 52.7852V50.7852V50.7852V52.7852ZM842.755 434.837L844.755 434.837V434.837H842.755ZM820.755 456.837V458.837V458.837V456.837ZM2 434.837H0V434.837L2 434.837ZM2 74.7852H0V74.7852H2ZM2.99805 68.2139L4.90697 68.8105L5.08049 68.2554L4.92924 67.6938L2.99805 68.2139ZM2.31055 63H0.310547H2.31055ZM584.311 2V4C594.252 4.00009 602.311 12.059 602.311 22H604.311H606.311C606.311 9.84978 596.461 0.00011301 584.311 0V2ZM604.311 22H602.311V52.7852H604.311H606.311V22H604.311ZM604.311 52.7852V54.7852H820.755V52.7852V50.7852H604.311V52.7852ZM820.755 52.7852V54.7852C831.801 54.7852 840.755 63.7395 840.755 74.7852H842.755H844.755C844.755 61.5304 834.01 50.7852 820.755 50.7852V52.7852ZM842.755 74.7852H840.755V434.837H842.755H844.755V74.7852H842.755ZM842.755 434.837L840.755 434.837C840.755 445.882 831.8 454.837 820.755 454.837V456.837V458.837C834.01 458.837 844.755 448.091 844.755 434.837L842.755 434.837ZM820.755 456.837V454.837H24V456.837V458.837H820.755V456.837ZM24 456.837V454.837C12.9545 454.837 4.00023 445.882 4 434.837L2 434.837L0 434.837C0.000272155 448.091 10.7453 458.837 24 458.837V456.837ZM2 434.837H4V74.7852H2H0V434.837H2ZM2 74.7852H4C4 72.7009 4.31805 70.6947 4.90697 68.8105L2.99805 68.2139L1.08912 67.6172C0.380812 69.8833 3.57628e-07 72.2917 0 74.7852H2ZM2.99805 68.2139L4.92924 67.6938C4.52659 66.1987 4.31055 64.6258 4.31055 63H2.31055H0.310547C0.310547 64.9818 0.574106 66.9043 1.06686 68.734L2.99805 68.2139ZM2.31055 63H4.31055V22H2.31055H0.310547V63H2.31055ZM2.31055 22H4.31055C4.31055 12.0589 12.3694 4 22.3105 4V2V0C10.1603 0 0.310547 9.84974 0.310547 22H2.31055ZM22.3105 2V4H584.311V2V0H22.3105V2Z" fill="#5E5E5E" mask="url(#path-1-outside-1_7788_41765)"/>
</svg>
