<svg width="40" height="40" viewBox="0 0 40 40" fill="none" xmlns="http://www.w3.org/2000/svg">
<path d="M33.332 6.66699H6.66536C4.83203 6.66699 3.3487 8.16699 3.3487 10.0003L3.33203 30.0003C3.33203 31.8337 4.83203 33.3337 6.66536 33.3337H33.332C35.1654 33.3337 36.6654 31.8337 36.6654 30.0003V10.0003C36.6654 8.16699 35.1654 6.66699 33.332 6.66699ZM32.6654 13.7503L20.882 21.117C20.3487 21.4503 19.6487 21.4503 19.1154 21.117L7.33203 13.7503C7.16491 13.6565 7.01856 13.5298 6.90185 13.3777C6.78513 13.2257 6.70047 13.0516 6.65299 12.8659C6.60551 12.6803 6.5962 12.4869 6.62563 12.2975C6.65505 12.1081 6.72259 11.9267 6.82417 11.7642C6.92574 11.6016 7.05924 11.4614 7.21657 11.352C7.37391 11.2425 7.55182 11.1662 7.73952 11.1275C7.92723 11.0888 8.12084 11.0886 8.30862 11.1269C8.49641 11.1652 8.67447 11.2412 8.83203 11.3503L19.9987 18.3337L31.1654 11.3503C31.3229 11.2412 31.501 11.1652 31.6888 11.1269C31.8766 11.0886 32.0702 11.0888 32.2579 11.1275C32.4456 11.1662 32.6235 11.2425 32.7808 11.352C32.9382 11.4614 33.0717 11.6016 33.1732 11.7642C33.2748 11.9267 33.3424 12.1081 33.3718 12.2975C33.4012 12.4869 33.3919 12.6803 33.3444 12.8659C33.2969 13.0516 33.2123 13.2257 33.0956 13.3777C32.9788 13.5298 32.8325 13.6565 32.6654 13.7503Z" fill="#FFFCFC"/>
</svg>
