<svg width="40" height="40" viewBox="0 0 40 40" fill="none" xmlns="http://www.w3.org/2000/svg">
<path d="M12.9987 3.33301H26.9987C32.332 3.33301 36.6654 7.66634 36.6654 12.9997V26.9997C36.6654 29.5634 35.6469 32.0222 33.8341 33.835C32.0212 35.6479 29.5625 36.6663 26.9987 36.6663H12.9987C7.66537 36.6663 3.33203 32.333 3.33203 26.9997V12.9997C3.33203 10.4359 4.35048 7.97716 6.16333 6.16431C7.97618 4.35146 10.4349 3.33301 12.9987 3.33301ZM12.6654 6.66634C11.0741 6.66634 9.54794 7.29848 8.42272 8.4237C7.29751 9.54892 6.66536 11.075 6.66536 12.6663V27.333C6.66536 30.6497 9.3487 33.333 12.6654 33.333H27.332C28.9233 33.333 30.4495 32.7009 31.5747 31.5757C32.6999 30.4504 33.332 28.9243 33.332 27.333V12.6663C33.332 9.34968 30.6487 6.66634 27.332 6.66634H12.6654ZM28.7487 9.16634C29.3012 9.16634 29.8311 9.38584 30.2218 9.77654C30.6125 10.1672 30.832 10.6971 30.832 11.2497C30.832 11.8022 30.6125 12.3321 30.2218 12.7228C29.8311 13.1135 29.3012 13.333 28.7487 13.333C28.1962 13.333 27.6663 13.1135 27.2756 12.7228C26.8849 12.3321 26.6654 11.8022 26.6654 11.2497C26.6654 10.6971 26.8849 10.1672 27.2756 9.77654C27.6663 9.38584 28.1962 9.16634 28.7487 9.16634ZM19.9987 11.6663C22.2088 11.6663 24.3285 12.5443 25.8913 14.1071C27.4541 15.6699 28.332 17.7895 28.332 19.9997C28.332 22.2098 27.4541 24.3294 25.8913 25.8922C24.3285 27.455 22.2088 28.333 19.9987 28.333C17.7886 28.333 15.6689 27.455 14.1061 25.8922C12.5433 24.3294 11.6654 22.2098 11.6654 19.9997C11.6654 17.7895 12.5433 15.6699 14.1061 14.1071C15.6689 12.5443 17.7886 11.6663 19.9987 11.6663ZM19.9987 14.9997C18.6726 14.9997 17.4008 15.5265 16.4632 16.4641C15.5255 17.4018 14.9987 18.6736 14.9987 19.9997C14.9987 21.3258 15.5255 22.5975 16.4632 23.5352C17.4008 24.4729 18.6726 24.9997 19.9987 24.9997C21.3248 24.9997 22.5966 24.4729 23.5342 23.5352C24.4719 22.5975 24.9987 21.3258 24.9987 19.9997C24.9987 18.6736 24.4719 17.4018 23.5342 16.4641C22.5966 15.5265 21.3248 14.9997 19.9987 14.9997Z" fill="#FFFCFC"/>
</svg>
