<svg width="40" height="40" viewBox="0 0 40 40" fill="none" xmlns="http://www.w3.org/2000/svg">
<path d="M16.6654 24.9997L25.3154 19.9997L16.6654 14.9997V24.9997ZM35.932 11.9497C36.1487 12.733 36.2987 13.783 36.3987 15.1163C36.5154 16.4497 36.5654 17.5997 36.5654 18.5997L36.6654 19.9997C36.6654 23.6497 36.3987 26.333 35.932 28.0497C35.5154 29.5497 34.5487 30.5163 33.0487 30.933C32.2654 31.1497 30.832 31.2997 28.632 31.3997C26.4654 31.5163 24.482 31.5663 22.6487 31.5663L19.9987 31.6663C13.0154 31.6663 8.66536 31.3997 6.9487 30.933C5.4487 30.5163 4.48203 29.5497 4.06536 28.0497C3.8487 27.2663 3.6987 26.2163 3.5987 24.883C3.48203 23.5497 3.43203 22.3997 3.43203 21.3997L3.33203 19.9997C3.33203 16.3497 3.5987 13.6663 4.06536 11.9497C4.48203 10.4497 5.4487 9.48301 6.9487 9.06634C7.73203 8.84967 9.16536 8.69967 11.3654 8.59967C13.532 8.48301 15.5154 8.43301 17.3487 8.43301L19.9987 8.33301C26.982 8.33301 31.332 8.59967 33.0487 9.06634C34.5487 9.48301 35.5154 10.4497 35.932 11.9497Z" fill="#FFFCFC"/>
</svg>
