<svg width="40" height="40" viewBox="0 0 40 40" fill="none" xmlns="http://www.w3.org/2000/svg">
<path d="M29.832 18.1663C24.4987 14.9997 15.582 14.6663 10.4987 16.2497C9.66537 16.4997 8.83203 15.9997 8.58203 15.2497C8.33203 14.4163 8.83203 13.583 9.58203 13.333C15.4987 11.583 25.2487 11.9163 31.4154 15.583C32.1654 15.9997 32.4154 16.9997 31.9987 17.7497C31.582 18.333 30.582 18.583 29.832 18.1663ZM29.6654 22.833C29.2487 23.4163 28.4987 23.6663 27.9154 23.2497C23.4154 20.4997 16.582 19.6663 11.332 21.333C10.6654 21.4997 9.91536 21.1663 9.7487 20.4997C9.58203 19.833 9.91536 19.083 10.582 18.9163C16.6654 17.083 24.1654 17.9997 29.332 21.1663C29.832 21.4163 30.082 22.2497 29.6654 22.833ZM27.6654 27.4163C27.332 27.9163 26.7487 28.083 26.2487 27.7497C22.332 25.333 17.4154 24.833 11.582 26.1663C10.9987 26.333 10.4987 25.9163 10.332 25.4163C10.1654 24.833 10.582 24.333 11.082 24.1663C17.4154 22.7497 22.9154 23.333 27.2487 25.9997C27.832 26.2497 27.9154 26.9163 27.6654 27.4163ZM19.9987 3.33301C17.81 3.33301 15.6427 3.7641 13.6206 4.60168C11.5985 5.43926 9.76123 6.66692 8.21358 8.21456C5.08798 11.3402 3.33203 15.5794 3.33203 19.9997C3.33203 24.42 5.08798 28.6592 8.21358 31.7848C9.76123 33.3324 11.5985 34.5601 13.6206 35.3977C15.6427 36.2353 17.81 36.6663 19.9987 36.6663C24.419 36.6663 28.6582 34.9104 31.7838 31.7848C34.9094 28.6592 36.6654 24.42 36.6654 19.9997C36.6654 17.811 36.2343 15.6437 35.3967 13.6216C34.5591 11.5995 33.3315 9.76221 31.7838 8.21456C30.2362 6.66692 28.3988 5.43926 26.3768 4.60168C24.3547 3.7641 22.1874 3.33301 19.9987 3.33301Z" fill="#FFFCFC"/>
</svg>
