<svg width="330" height="420" viewBox="0 0 330 420" fill="none" xmlns="http://www.w3.org/2000/svg">
<g id="Akyasapatra">
<g id="Akyasapatra_2">
<g id="Cincin">
<g id="Layer 1">
<g id="Group" style="mix-blend-mode:overlay">
<path id="Vector" d="M249.786 334.875C248.297 326.953 243.879 319.865 237.514 314.926C237.42 314.852 237.327 314.782 237.235 314.713C233.651 312.011 229.635 309.934 225.358 308.572C224.814 308.393 224.231 308.36 223.67 308.476C223.108 308.593 222.587 308.855 222.159 309.237C221.612 309.736 221.15 310.321 220.793 310.969C220.576 311.37 220.444 311.811 220.405 312.265C220.366 312.718 220.421 313.175 220.567 313.607C220.712 314.038 220.945 314.435 221.25 314.773C221.556 315.111 221.927 315.382 222.342 315.57C227.182 317.788 231.456 321.232 234.163 325.84C236.346 329.552 237.622 333.727 237.886 338.025C238.33 345.433 235.731 353.355 230.01 358.28C226.634 361.166 222.598 363.175 218.26 364.13C211.645 365.571 205.575 364.023 199.886 360.62C198.037 359.513 196.184 358.327 194.581 356.898C187.025 350.129 179.658 343.156 172.606 335.86C170.373 333.543 168.154 331.194 165.906 328.873C160.119 322.772 154.088 316.532 146.986 312.094C145.563 311.125 144.106 310.212 142.617 309.355C126.85 300.326 108.735 304.357 98.2668 314.785C88.7459 324.269 85.4522 335.836 87.9302 349.017C89.4277 356.934 93.8425 364.027 100.204 368.961C100.296 369.035 100.394 369.105 100.486 369.174C106.537 373.769 114.33 376.748 121.937 377.044C124.596 377.15 125.234 375.307 125.115 372.92C125.093 372.504 125.036 372.07 124.818 371.711C124.462 371.123 123.755 370.86 123.077 370.734C115.289 369.307 107.644 364.991 103.558 358.04C101.378 354.329 100.102 350.157 99.8355 345.861C99.3899 338.448 101.989 330.526 107.715 325.601C111.089 322.715 115.123 320.709 119.46 319.759C126.076 318.314 132.15 319.856 137.835 323.269C139.689 324.377 141.541 325.563 143.144 326.999C150.695 333.768 158.063 340.74 165.114 348.031C167.436 350.432 169.729 352.864 172.059 355.263C172.082 355.291 172.11 355.318 172.143 355.35C177.827 361.341 183.766 367.438 190.735 371.793C192.157 372.761 193.617 373.679 195.108 374.531C210.87 383.56 228.985 379.529 239.45 369.107C248.97 359.618 252.275 348.05 249.786 334.875Z" fill="#58595B"/>
</g>
<path id="Vector_2" d="M247.947 333.023C246.458 325.1 242.039 318.012 235.673 313.074C235.581 313 235.488 312.93 235.396 312.861C231.812 310.159 227.796 308.083 223.519 306.721C222.975 306.541 222.392 306.508 221.831 306.625C221.269 306.742 220.748 307.004 220.32 307.385C219.773 307.884 219.311 308.47 218.952 309.118C218.736 309.519 218.604 309.96 218.565 310.413C218.526 310.867 218.581 311.324 218.727 311.756C218.872 312.188 219.105 312.585 219.411 312.923C219.716 313.26 220.088 313.532 220.503 313.72C225.342 315.936 229.615 319.382 232.324 323.99C234.507 327.702 235.782 331.876 236.047 336.174C236.491 343.582 233.892 351.504 228.17 356.429C224.794 359.314 220.759 361.323 216.421 362.278C209.805 363.718 203.735 362.172 198.046 358.768C196.198 357.66 194.344 356.474 192.741 355.046C185.185 348.278 177.819 341.306 170.767 334.009C168.534 331.693 166.314 329.344 164.067 327.023C158.28 320.921 152.248 314.681 145.146 310.242C143.724 309.274 142.274 308.356 140.776 307.505C125.011 298.475 106.895 302.506 96.4267 312.934C86.9069 322.413 83.6099 333.977 86.0922 347.157C87.5886 355.075 92.0034 362.167 98.3655 367.102C98.458 367.175 98.5548 367.246 98.6473 367.315C104.698 371.911 112.492 374.89 120.098 375.185C122.757 375.291 123.395 373.447 123.277 371.061C123.254 370.644 123.198 370.211 122.98 369.852C122.624 369.263 121.917 369.001 121.238 368.874C113.45 367.448 105.806 363.131 101.719 356.181C99.5388 352.469 98.2636 348.297 97.9965 344.001C97.5519 336.588 100.151 328.666 105.877 323.741C109.251 320.855 113.285 318.849 117.622 317.899C124.238 316.454 130.312 317.997 135.997 321.409C137.85 322.516 139.703 323.702 141.306 325.138C148.857 331.907 156.224 338.879 163.276 346.171C165.596 348.57 167.891 351.003 170.221 353.403C170.244 353.431 170.272 353.458 170.304 353.491C175.988 359.481 181.928 365.578 188.897 369.933C190.319 370.901 191.778 371.819 193.27 372.672C209.032 381.701 227.146 377.67 237.612 367.241C247.131 357.767 250.43 346.199 247.947 333.023Z" fill="url(#paint0_linear_653_12489)"/>
</g>
</g>
<g id="Api">
<g id="Layer 1_2">
<g id="Group_2" style="mix-blend-mode:overlay">
<path id="Vector_3" d="M133.452 75.7532C131.431 81.9279 136.772 95.8757 144.902 94.6931C147.236 94.3538 149.1 92.5842 150.517 90.6986C164.641 71.8842 155.953 36.9727 149.067 16.9842C148.561 15.5145 148.146 14.3 148.583 12.8525C156.366 17.1789 163.532 24.5415 169.912 30.7257C188.667 48.9116 204.613 71.3514 205.966 98.4005C207.261 124.243 189.454 153.675 160.352 149.555C148.086 147.817 137.032 139.922 130.626 129.316C121.386 114.009 120.702 89.7861 133.452 75.7532Z" fill="#58595B"/>
<path id="Vector_4" d="M242.374 90.861C248.005 94.1419 251.414 99.8231 254.657 105.282C257.954 110.834 260.485 117.055 261.016 123.541C262.048 136.178 255.37 147.364 247.687 156.787C239.392 166.959 231.091 177.1 224.536 188.509C224.452 188.655 224.357 188.811 224.201 188.876C224.01 188.955 223.794 188.876 223.607 188.784C217.489 185.912 213.596 178.226 211.434 172.153C207.768 161.859 209.537 151.038 214.939 141.699C219.88 133.156 227.143 126.343 232.431 118.081C237.654 109.92 240.755 100.339 242.298 90.8174L242.374 90.861Z" fill="#58595B"/>
<path id="Vector_5" d="M95.8341 113.098C98.7695 123.997 99.6629 132.995 107.877 142.461C113.472 148.908 120.187 155.633 122.358 164.185C124.75 173.612 121.571 183.723 116.296 191.597C115.445 192.864 113.909 195.911 112.394 195.425C111.485 195.133 110.444 192.826 109.981 192.08C108.572 189.805 107.333 187.432 106.072 185.074C102.979 179.295 99.2353 174.076 94.4855 169.547C90.4228 165.678 86.0931 162.089 83.2236 157.169C76.2362 145.191 81.841 132.01 89.3922 121.851C91.5576 118.941 93.791 116.091 95.8341 113.098Z" fill="#58595B"/>
</g>
<path id="Vector_6" d="M131.584 73.9007C129.563 80.0765 134.902 94.0232 143.033 92.8406C145.367 92.5013 147.232 90.7317 148.648 88.8461C162.773 70.0328 154.083 35.1212 147.198 15.1317C146.692 13.663 146.277 12.4485 146.714 11C154.496 15.3274 161.664 22.6889 168.044 28.87C186.799 47.0558 202.744 69.4957 204.098 96.5448C205.393 122.388 187.587 151.82 158.486 147.699C146.221 145.961 135.166 138.066 128.758 127.456C119.519 112.158 118.835 87.9336 131.584 73.9007Z" fill="url(#paint1_linear_653_12489)"/>
<path id="Vector_7" d="M240.514 89.0066C246.146 92.2875 249.554 97.9676 252.797 103.427C256.094 108.979 258.625 115.2 259.156 121.686C260.19 134.322 253.512 145.508 245.829 154.932C237.533 165.104 229.232 175.245 222.678 186.654C222.592 186.801 222.498 186.957 222.341 187.022C222.151 187.101 221.934 187.022 221.747 186.928C215.629 184.057 211.738 176.371 209.575 170.297C205.909 160.004 207.677 149.183 213.084 139.845C218.026 131.302 225.289 124.488 230.575 116.227C235.799 108.066 238.9 98.4845 240.443 88.9619L240.514 89.0066Z" fill="url(#paint2_linear_653_12489)"/>
<path id="Vector_8" d="M93.9767 111.25C96.9111 122.149 97.8055 131.146 106.018 140.612C111.615 147.059 118.33 153.785 120.499 162.336C122.892 171.763 119.712 181.874 114.437 189.749C113.586 191.016 112.051 194.064 110.535 193.578C109.627 193.285 108.587 190.977 108.124 190.231C106.714 187.957 105.476 185.584 104.214 183.227C101.121 177.446 97.3769 172.228 92.6218 167.7C88.559 163.829 84.2304 160.24 81.3599 155.32C74.3735 143.342 79.9773 130.161 87.5285 120.004C89.6981 117.094 91.9294 114.245 93.9767 111.25Z" fill="url(#paint3_linear_653_12489)"/>
</g>
</g>
<g id="Tangan">
<g id="Group_3">
<g id="Layer 1_3">
<g id="Group_4" style="mix-blend-mode:overlay">
<path id="Vector_9" d="M327.048 186.942C322.99 174.466 315.243 163.579 309.36 151.953C307.205 147.691 305.273 143.317 303.345 138.949C302.494 137.035 301.396 130.666 298.231 133.206C289.433 140.267 294.487 151.209 298.008 159.553C301.274 167.289 305.162 174.832 307.21 183.023C310.36 195.615 308.571 209.244 302.813 220.827C296.262 233.997 285.434 241.97 272.416 248.159C267.512 250.493 262.423 252.417 257.201 253.913C254.44 254.704 251.645 255.373 248.815 255.919C246.935 256.281 245.359 255.919 247.384 254.154C252.545 249.641 257.321 245.351 261.612 239.996C264.966 235.803 268.718 231.782 271.262 227.122C276.632 217.295 279.546 204.527 273.805 194.215C273.685 194.002 273.532 193.765 273.286 193.724C273.013 193.677 272.773 193.905 272.587 194.113C268.278 198.913 264.97 204.429 260.824 209.355C257.894 212.855 254.732 216.153 251.358 219.228C244.881 225.12 237.945 230.652 230.801 235.864C226.001 239.373 221.109 242.738 216.197 245.967C202.238 255.149 190.021 269.08 180.801 282.936C177.934 287.251 175.592 291.892 173.825 296.762C170.415 306.084 169.135 315.882 168.77 326.092C176.099 333.705 183.498 341.232 191.699 347.923C194.974 350.595 198.463 352.949 202.539 354.219C203.734 354.594 204.954 354.883 206.19 355.084C206.237 346.816 206.616 338.573 207.761 330.151C207.96 328.662 208.16 327.121 208.369 325.546C209.795 314.737 211.787 302.503 220.706 295.655C226.52 291.188 233.929 289.567 240.665 287.041C254.925 281.689 270.024 277.788 283.682 270.941C295.761 264.891 306.761 256.537 315.113 245.854C320.474 238.988 324.856 231.284 327.419 222.964C331.012 211.301 330.82 198.538 327.048 186.942Z" fill="#58595B"/>
</g>
<path id="Vector_10" d="M325.222 185.081C321.164 172.605 313.417 161.718 307.533 150.091C305.38 145.829 303.447 141.456 301.52 137.087C300.669 135.173 299.569 128.803 296.405 131.344C287.607 138.405 292.662 149.348 296.183 157.691C299.449 165.428 303.336 172.97 305.384 181.162C308.534 193.753 306.746 207.383 300.987 218.965C294.436 232.136 283.609 240.109 270.59 246.297C265.685 248.63 260.596 250.554 255.375 252.05C252.614 252.842 249.819 253.511 246.99 254.056C245.108 254.418 243.533 254.056 245.558 252.292C250.719 247.779 255.496 243.489 259.785 238.133C263.14 233.941 266.893 229.919 269.436 225.258C274.806 215.433 277.72 202.664 271.98 192.352C271.86 192.139 271.707 191.903 271.461 191.86C271.188 191.815 270.946 192.041 270.761 192.25C266.453 197.049 263.145 202.572 258.998 207.492C256.069 210.992 252.907 214.29 249.533 217.364C243.056 223.257 236.12 228.789 228.977 234C224.177 237.51 219.285 240.876 214.373 244.109C200.414 253.291 188.197 267.223 178.977 281.079C176.11 285.394 173.767 290.035 171.999 294.905C168.59 304.225 167.311 314.025 166.945 324.235C174.274 331.847 181.673 339.375 189.873 346.065C193.149 348.738 196.637 351.092 200.715 352.361C201.911 352.737 203.133 353.027 204.371 353.228C204.417 344.959 204.797 336.716 205.941 328.295C206.141 326.806 206.34 325.265 206.549 323.69C207.976 312.881 209.968 300.646 218.886 293.799C224.7 289.332 232.109 287.711 238.844 285.185C253.105 279.834 268.204 275.932 281.862 269.085C293.94 263.035 304.941 254.682 313.292 243.999C318.653 237.134 323.035 229.43 325.598 221.109C329.188 209.443 328.993 196.681 325.222 185.081Z" fill="url(#paint4_linear_653_12489)"/>
<g id="Group_5" style="mix-blend-mode:overlay">
<path id="Vector_11" d="M151.057 282.983C141.837 269.121 129.62 255.195 115.66 246.008C112.422 243.877 109.196 241.685 105.982 239.434C97.1001 233.203 88.4503 226.504 80.495 219.267C77.1213 216.193 73.959 212.895 71.0294 209.395C66.8816 204.471 63.575 198.948 59.2666 194.153C59.0816 193.94 58.8412 193.718 58.5668 193.763C58.3211 193.801 58.169 194.037 58.0478 194.255C52.3046 204.571 55.2219 217.333 60.5875 227.157C63.14 231.818 66.8837 235.844 70.2424 240.036C74.5327 245.387 79.3049 249.677 84.4705 254.195C86.4912 255.964 84.9193 256.322 83.039 255.959C80.2121 255.418 77.4167 254.749 74.6529 253.953C69.4319 252.456 64.3431 250.532 59.4378 248.2C46.419 242.005 35.5921 234.037 29.0407 220.868C23.2826 209.286 21.4895 195.656 24.644 183.065C26.6923 174.876 30.5796 167.331 33.8458 159.59C37.3618 151.246 42.4211 140.303 33.6235 133.247C30.4584 130.704 29.3555 137.076 28.5078 138.99C26.5807 143.359 24.6493 147.732 22.4945 151.99C16.611 163.613 8.86414 174.506 4.80565 186.979C1.03006 198.571 0.839683 211.333 4.43021 223.004C6.99229 231.329 11.3752 239.024 16.7354 245.89C25.08 256.578 36.092 264.926 48.1664 270.981C61.8244 277.819 76.9236 281.73 91.1836 287.08C97.9201 289.61 105.329 291.236 111.138 295.695C111.98 296.341 112.775 297.045 113.519 297.802C113.566 297.794 113.617 297.78 113.663 297.771C122.257 295.913 130.587 296.835 138.495 300.698C145.043 303.899 150.939 308.111 156.157 313.193C158.381 315.357 160.563 317.567 162.726 319.795C162.073 311.576 160.632 303.64 157.741 296.024C156.013 291.439 153.77 287.064 151.057 282.983Z" fill="#58595B"/>
</g>
<path id="Vector_12" d="M149.194 281.123C139.974 267.262 127.757 253.336 113.798 244.149C110.56 242.022 107.325 239.826 104.12 237.575C95.2383 231.344 86.5885 224.645 78.6342 217.409C75.2603 214.335 72.0979 211.037 69.1687 207.536C65.0208 202.611 61.7143 197.088 57.4058 192.294C57.2197 192.081 56.9804 191.858 56.706 191.905C56.4604 191.942 56.3072 192.178 56.187 192.396C50.4439 202.712 53.3612 215.474 58.7257 225.298C61.2782 229.959 65.0219 233.984 68.3806 238.178C72.6709 243.528 77.443 247.818 82.6087 252.335C84.6294 254.105 83.0586 254.462 81.1771 254.101C78.351 253.558 75.5559 252.89 72.7921 252.095C67.5745 250.599 62.4889 248.677 57.5866 246.347C44.5678 240.153 33.7398 232.184 27.1895 219.015C21.4304 207.432 19.6383 193.802 22.7928 181.21C24.8401 173.021 28.7273 165.477 31.9935 157.736C35.5106 149.393 40.5689 138.449 31.7712 131.394C28.6072 128.85 27.5043 135.223 26.6566 137.137C24.7295 141.506 22.797 145.879 20.6433 150.136C14.7588 161.76 7.01295 172.651 2.95446 185.125C-0.822184 196.717 -1.0115 209.485 2.57903 221.15C5.14111 229.475 9.52398 237.171 14.8842 244.037C23.2278 254.725 34.2408 263.073 46.3141 269.128C59.9722 275.966 75.0713 279.876 89.3313 285.227C96.0678 287.756 103.476 289.382 109.287 293.841C110.129 294.488 110.924 295.192 111.668 295.949C111.714 295.94 111.765 295.926 111.811 295.916C120.405 294.059 128.736 294.98 136.644 298.845C143.159 302.043 149.121 306.261 154.305 311.339C156.529 313.503 158.711 315.712 160.875 317.941C160.222 309.723 158.781 301.787 155.89 294.17C154.158 289.582 151.912 285.205 149.194 281.123Z" fill="url(#paint5_linear_653_12489)"/>
<g id="Group_6" style="mix-blend-mode:overlay">
<path id="Vector_13" d="M48.8842 238.633C48.4046 238.615 47.9015 238.207 47.5463 237.814C42.5572 232.346 37.7808 226.502 34.3583 219.91C30.5827 212.643 28.3833 204.495 28.7854 196.27C29.5586 180.476 39.3028 166.67 43.8037 151.512C45.3586 146.267 46.284 140.855 46.5604 135.391C46.6667 133.229 46.2307 131.019 46.2264 128.848C46.2264 128.103 46.2998 127.239 46.9114 126.811C49.7617 124.815 54.9571 131.355 56.1802 133.343C58.5519 137.196 59.5782 141.872 59.3953 146.37C59.0836 153.996 55.8919 161.164 52.9193 168.194C47.4027 181.24 42.3977 194.904 42.4477 209.068C42.4716 214.349 43.2002 219.602 44.6141 224.689C45.7723 228.862 47.5718 232.61 49.4096 236.526C49.7181 237.184 49.9563 238.121 49.3426 238.51C49.2061 238.598 49.046 238.64 48.8842 238.633Z" fill="#58595B"/>
</g>
<path id="Vector_14" d="M47.0017 236.775C46.5231 236.758 46.02 236.35 45.6637 235.956C40.6757 230.49 35.8982 224.646 32.4758 218.052C28.6991 210.786 26.4997 202.638 26.9028 194.413C27.6749 178.62 37.4191 164.813 41.92 149.654C43.4753 144.41 44.401 138.998 44.6778 133.535C44.7842 131.372 44.347 129.162 44.3439 126.99C44.3439 126.246 44.4162 125.382 45.0277 124.955C47.878 122.958 53.0734 129.499 54.2965 131.485C56.6682 135.339 57.6999 140.015 57.5116 144.512C57.2 152.139 54.0083 159.307 51.0357 166.337C45.5201 179.383 40.5151 193.047 40.5651 207.211C40.5881 212.491 41.3163 217.744 42.7305 222.832C43.8887 227.006 45.6892 230.753 47.526 234.669C47.8344 235.328 48.0726 236.265 47.46 236.653C47.3239 236.741 47.1635 236.784 47.0017 236.775Z" fill="url(#paint6_linear_653_12489)"/>
<g id="Group_7" style="mix-blend-mode:overlay">
<path id="Vector_15" d="M283.233 238.633C283.711 238.615 284.214 238.207 284.57 237.814C289.559 232.346 294.335 226.502 297.758 219.91C301.533 212.643 303.733 204.495 303.331 196.27C302.557 180.476 292.813 166.67 288.313 151.512C286.758 146.267 285.832 140.855 285.556 135.391C285.449 133.229 285.885 131.019 285.89 128.848C285.89 128.103 285.816 127.239 285.206 126.811C282.354 124.815 277.159 131.355 275.937 133.343C273.564 137.196 272.534 141.872 272.721 146.37C273.032 153.996 276.224 161.164 279.197 168.194C284.713 181.24 289.718 194.904 289.668 209.068C289.644 214.349 288.916 219.602 287.502 224.689C286.344 228.862 284.544 232.61 282.707 236.526C282.398 237.184 282.16 238.121 282.773 238.51C282.91 238.598 283.071 238.64 283.233 238.633Z" fill="#58595B"/>
</g>
<path id="Vector_16" d="M281.367 236.775C281.846 236.758 282.349 236.35 282.705 235.957C287.693 230.49 292.47 224.646 295.893 218.053C299.669 210.787 301.869 202.638 301.466 194.413C300.694 178.62 290.949 164.814 286.449 149.655C284.896 144.408 283.974 138.996 283.699 133.532C283.593 131.369 284.03 129.159 284.033 126.987C284.033 126.243 283.961 125.379 283.349 124.952C280.499 122.955 275.304 129.496 274.081 131.483C271.709 135.336 270.677 140.012 270.865 144.509C271.177 152.136 274.369 159.304 277.341 166.335C282.857 179.38 287.862 193.044 287.812 207.208C287.789 212.488 287.061 217.741 285.647 222.829C284.488 227.003 282.689 230.75 280.851 234.666C280.543 235.325 280.304 236.262 280.917 236.65C281.05 236.737 281.208 236.781 281.367 236.775Z" fill="url(#paint7_linear_653_12489)"/>
</g>
</g>
<g id="Group_8">
<g id="Layer 1_4">
<g id="Group_9" style="mix-blend-mode:overlay">
<path id="Vector_17" d="M165.369 354.506C165.298 362.08 165.118 369.655 164.828 377.229C164.61 382.821 164.323 388.408 163.965 393.991C163.762 397.132 163.984 400.523 163.043 403.563C162.488 405.35 161.395 407.051 159.746 407.932C158.282 408.71 156.556 408.775 154.9 408.793C151.152 408.834 147.367 408.742 143.706 407.926C133.323 405.624 127.393 396.929 127.602 386.472C127.908 370.929 128.427 356.025 126.309 340.524C126.105 339.035 125.911 337.49 125.702 335.919C125.226 332.303 124.683 328.539 123.84 324.858C125.328 324.827 126.815 324.948 128.278 325.22C133.652 326.202 138.221 328.879 142.317 332.363C145.105 334.74 147.756 337.283 150.438 339.78C155.557 344.544 160.534 349.452 165.369 354.506Z" fill="#58595B"/>
</g>
<path id="Vector_18" d="M163.535 352.646C163.46 360.221 163.279 367.795 162.992 375.37C162.774 380.962 162.487 386.549 162.131 392.132C161.927 395.273 162.149 398.664 161.209 401.704C160.652 403.492 159.559 405.193 157.905 406.072C156.441 406.851 154.715 406.916 153.059 406.935C149.311 406.976 145.526 406.884 141.866 406.068C131.484 403.766 125.553 395.069 125.762 384.613C126.067 369.07 126.586 354.166 124.468 338.67C124.265 337.181 124.071 335.635 123.862 334.065C123.385 330.449 122.842 326.684 122 323.005C123.488 322.974 124.975 323.095 126.438 323.366C131.812 324.349 136.38 327.027 140.477 330.51C143.267 332.887 145.917 335.43 148.599 337.928C153.719 342.687 158.698 347.593 163.535 352.646Z" fill="url(#paint8_linear_653_12489)"/>
<g id="Group_10" style="mix-blend-mode:overlay">
<path id="Vector_19" d="M207.956 385.403C208.168 395.864 202.234 404.556 191.851 406.862C188.191 407.673 184.407 407.771 180.658 407.724C178.999 407.706 177.275 407.641 175.812 406.867C174.157 405.987 173.064 404.287 172.509 402.493C171.567 399.459 171.79 396.068 171.587 392.927C171.225 387.34 170.937 381.751 170.724 376.16C170.511 370.57 170.358 364.975 170.266 359.376C173.031 362.235 175.853 365.037 178.837 367.683C183.516 371.842 188.505 375.568 194.191 378.278C198.634 380.399 203.193 381.799 207.891 382.248C207.914 383.296 207.936 384.348 207.956 385.403Z" fill="#58595B"/>
</g>
<path id="Vector_20" d="M206.119 383.546C206.331 394.007 200.397 402.698 190.014 405.004C186.355 405.816 182.57 405.912 178.822 405.867C177.162 405.848 175.44 405.783 173.975 405.01C172.321 404.129 171.228 402.428 170.672 400.636C169.731 397.601 169.954 394.211 169.75 391.065C169.388 385.477 169.101 379.889 168.888 374.299C168.675 368.709 168.523 363.114 168.43 357.514C171.195 360.372 174.016 363.176 177.001 365.821C181.68 369.981 186.669 373.705 192.354 376.416C196.798 378.538 201.356 379.936 206.054 380.386C206.077 381.437 206.099 382.49 206.119 383.546Z" fill="url(#paint9_linear_653_12489)"/>
</g>
</g>
</g>
</g>
</g>
<defs>
<linearGradient id="paint0_linear_653_12489" x1="85.2988" y1="340.088" x2="248.742" y2="340.088" gradientUnits="userSpaceOnUse">
<stop stop-color="#FFFEF9"/>
<stop offset="0.03" stop-color="#FFFCF0"/>
<stop offset="0.06" stop-color="#FEFAE0"/>
<stop offset="0.32" stop-color="#F8EFAF"/>
<stop offset="0.49" stop-color="#F4E78C"/>
<stop offset="0.87" stop-color="#F2E379"/>
<stop offset="0.99" stop-color="#F1CA56"/>
</linearGradient>
<linearGradient id="paint1_linear_653_12489" x1="121.906" y1="79.5447" x2="204.166" y2="79.5447" gradientUnits="userSpaceOnUse">
<stop stop-color="#FFFEF9"/>
<stop offset="0.01" stop-color="#FEFAE0"/>
<stop offset="0.47" stop-color="#F8EFAF"/>
<stop offset="0.78" stop-color="#F4E78C"/>
<stop offset="0.87" stop-color="#F2E379"/>
<stop offset="0.99" stop-color="#F1CA56"/>
</linearGradient>
<linearGradient id="paint2_linear_653_12489" x1="207.644" y1="138.007" x2="259.262" y2="138.007" gradientUnits="userSpaceOnUse">
<stop stop-color="#FFFEF9"/>
<stop offset="0.01" stop-color="#FEFAE0"/>
<stop offset="0.47" stop-color="#F8EFAF"/>
<stop offset="0.78" stop-color="#F4E78C"/>
<stop offset="0.87" stop-color="#F2E379"/>
<stop offset="0.99" stop-color="#F1CA56"/>
</linearGradient>
<linearGradient id="paint3_linear_653_12489" x1="78.1746" y1="152.438" x2="121.309" y2="152.438" gradientUnits="userSpaceOnUse">
<stop stop-color="#FFFEF9"/>
<stop offset="0.01" stop-color="#FEFAE0"/>
<stop offset="0.47" stop-color="#F8EFAF"/>
<stop offset="0.78" stop-color="#F4E78C"/>
<stop offset="0.87" stop-color="#F2E379"/>
<stop offset="0.99" stop-color="#F1CA56"/>
</linearGradient>
<linearGradient id="paint4_linear_653_12489" x1="166.945" y1="241.992" x2="328.175" y2="241.992" gradientUnits="userSpaceOnUse">
<stop stop-color="#FFFEF9"/>
<stop offset="0.02" stop-color="#FFFCF0"/>
<stop offset="0.04" stop-color="#FEFAE0"/>
<stop offset="0.2" stop-color="#F8EFAF"/>
<stop offset="0.3" stop-color="#F4E78C"/>
<stop offset="0.87" stop-color="#F2E379"/>
<stop offset="0.99" stop-color="#F1CA56"/>
</linearGradient>
<linearGradient id="paint5_linear_653_12489" x1="-0.00538177" y1="224.369" x2="160.87" y2="224.369" gradientUnits="userSpaceOnUse">
<stop stop-color="#FFFCF0"/>
<stop offset="0.01" stop-color="#FEFAE0"/>
<stop offset="0.22" stop-color="#F8EFAF"/>
<stop offset="0.36" stop-color="#F4E78C"/>
<stop offset="0.87" stop-color="#F2E379"/>
<stop offset="0.99" stop-color="#F1CA56"/>
</linearGradient>
<linearGradient id="paint6_linear_653_12489" x1="26.8517" y1="180.674" x2="57.5297" y2="180.674" gradientUnits="userSpaceOnUse">
<stop stop-color="#FFFEF9"/>
<stop offset="0.01" stop-color="#FEFAE0"/>
<stop offset="0.47" stop-color="#F8EFAF"/>
<stop offset="0.78" stop-color="#F4E78C"/>
<stop offset="0.87" stop-color="#F2E379"/>
<stop offset="0.99" stop-color="#F1CA56"/>
</linearGradient>
<linearGradient id="paint7_linear_653_12489" x1="301.517" y1="180.675" x2="270.839" y2="180.675" gradientUnits="userSpaceOnUse">
<stop stop-color="#FFFEF9"/>
<stop offset="0.01" stop-color="#FFFCF0"/>
<stop offset="0.02" stop-color="#FEFAE0"/>
<stop offset="0.47" stop-color="#F8EFAF"/>
<stop offset="0.78" stop-color="#F4E78C"/>
<stop offset="0.87" stop-color="#F2E379"/>
<stop offset="0.99" stop-color="#F1CA56"/>
</linearGradient>
<linearGradient id="paint8_linear_653_12489" x1="121.998" y1="364.968" x2="163.532" y2="364.968" gradientUnits="userSpaceOnUse">
<stop stop-color="#FFFEF9"/>
<stop offset="0.02" stop-color="#FFFCF0"/>
<stop offset="0.05" stop-color="#FEFAE0"/>
<stop offset="0.48" stop-color="#F8EFAF"/>
<stop offset="0.78" stop-color="#F4E78C"/>
<stop offset="0.87" stop-color="#F2E379"/>
<stop offset="0.99" stop-color="#F1CA56"/>
</linearGradient>
<linearGradient id="paint9_linear_653_12489" x1="168.43" y1="381.698" x2="206.124" y2="381.698" gradientUnits="userSpaceOnUse">
<stop stop-color="#FFFEF9"/>
<stop offset="0.08" stop-color="#FFFCF0"/>
<stop offset="0.16" stop-color="#FEFAE0"/>
<stop offset="0.53" stop-color="#F8EFAF"/>
<stop offset="0.78" stop-color="#F4E78C"/>
<stop offset="0.87" stop-color="#F2E379"/>
<stop offset="0.99" stop-color="#F1CA56"/>
</linearGradient>
</defs>
</svg>
