<svg width="330" height="420" viewBox="0 0 330 420" fill="none" xmlns="http://www.w3.org/2000/svg">
<g id="Gelora Harmoni">
<g id="Gelora Harmoni_2">
<g id="Lingkaran">
<path id="Vector" d="M147.72 286.469C147.884 255.03 172.571 230.349 203.929 230.845C237.741 231.376 260.308 259.236 259.246 289.056C258.185 318.946 233.416 342.802 201.864 342.616C171.817 342.427 147.56 317.271 147.72 286.469Z" fill="url(#paint0_linear_636_12705)"/>
</g>
<g id="Api">
<path id="Vector_2" d="M130.455 209.346C121.34 220.399 113.501 231.915 109.701 245.667C99.8828 281.15 110.296 310.973 136.559 335.404C171.934 368.305 227.899 371.301 266.663 342.656C289.461 325.81 302.033 303.206 302.365 274.384C302.365 273.911 302.503 273.439 303.466 272.765C304.313 276.578 305.451 280.351 305.963 284.209C314.052 345.073 273.855 395.165 218.874 405.86C178.467 413.722 142.678 403.332 113.525 373.891C67.3838 327.275 73.4925 251.356 125.997 212.304C127.446 211.243 128.98 210.319 130.455 209.346Z" fill="url(#paint1_linear_636_12705)"/>
<path id="Vector_3" d="M130.574 420C122.544 418.591 114.435 417.527 106.498 415.707C91.2551 412.207 77.2546 406.155 66.6507 394.024C56.6624 382.615 53.0057 368.895 52.9845 354.121C52.9473 327.094 62.4924 302.734 75.1131 279.128C74.7999 282.556 74.3966 285.979 74.187 289.415C72.8044 312.233 74.5585 334.609 84.6688 355.583C97.2098 381.601 118.659 397.593 144.888 407.636C156.436 412.056 168.505 415.129 179.3 418.496L168.643 420H130.574Z" fill="url(#paint2_linear_636_12705)"/>
<path id="Vector_4" d="M23 233.021C24.5683 224.663 25.6536 216.178 27.7924 207.969C34.6415 181.611 48.3236 158.769 65.9251 138.391C79.4586 122.713 94.2844 108.144 108.15 92.7278C122.092 77.2351 132.632 59.7604 135.731 38.7091C137.589 26.0475 136.636 13.5027 132.048 0C141.983 9.76948 148.113 20.3376 151.345 32.4499C157.419 55.2206 152.497 76.3993 141.328 96.5485C131.923 113.53 118.528 127.176 105.594 141.389C81.868 167.485 59.0787 194.479 43.0614 226.285C39.4074 233.539 36.7139 241.424 34.668 249.302C32.6619 257.018 32.0462 265.095 30.8202 273.015L29.4934 273.37C27.735 265.156 25.9765 256.941 24.218 248.726C23.8306 246.919 23.4087 245.12 23 243.319V233.021Z" fill="url(#paint3_linear_636_12705)"/>
<path id="Vector_5" d="M167.939 13.7969C183.089 29.0454 192.183 47.1543 193.945 68.6434C196.659 101.948 183.16 129.725 163.494 155.043C155.518 165.301 146.307 174.587 137.523 184.19C109.435 214.968 82.8586 246.946 62.0303 283.248C51.1505 302.193 44.6464 322.562 43.6142 344.54C43.5293 346.352 43.0649 348.145 42.7756 349.95L41.0534 350.287C38.9305 341.464 36.0115 332.748 34.8227 323.801C29.412 283.001 42.6934 246.93 63.9356 213.087C77.7743 191.043 95.1317 171.929 113.293 153.387C127.538 138.847 142.061 124.485 153.262 107.22C172.047 78.2404 178.442 47.4408 167.939 13.7969Z" fill="url(#paint4_linear_636_12705)"/>
<path id="Vector_6" d="M210.249 79.334C230.454 94.3597 236.905 120.651 226.532 145.271C218.632 164.014 204.772 178.074 190.854 192.394C170.084 213.756 150.46 236.267 136.051 262.64C129.417 274.785 126.233 288.001 126.374 303.35C121.204 295.141 119.209 287.369 118.431 279.269C115.969 253.951 124.227 231.491 138.787 211.591C148.951 197.706 161.205 185.35 172.605 172.38C182.872 160.706 194.333 149.891 203.307 137.298C215.456 120.256 218.584 101.017 210.401 80.8782C210.228 80.4563 210.302 79.9336 210.249 79.334Z" fill="url(#paint5_linear_636_12705)"/>
</g>
</g>
</g>
<defs>
<linearGradient id="paint0_linear_636_12705" x1="147.72" y1="286.716" x2="259.283" y2="286.716" gradientUnits="userSpaceOnUse">
<stop stop-color="#E61D2E"/>
<stop offset="0.2" stop-color="#DC1E39"/>
<stop offset="0.56" stop-color="#C32157"/>
<stop offset="1" stop-color="#9C2583"/>
</linearGradient>
<linearGradient id="paint1_linear_636_12705" x1="82.4644" y1="308.869" x2="307.012" y2="308.869" gradientUnits="userSpaceOnUse">
<stop stop-color="#E61D2E"/>
<stop offset="0.2" stop-color="#DC1E39"/>
<stop offset="0.56" stop-color="#C32157"/>
<stop offset="1" stop-color="#9C2583"/>
</linearGradient>
<linearGradient id="paint2_linear_636_12705" x1="52.9845" y1="349.563" x2="179.3" y2="349.563" gradientUnits="userSpaceOnUse">
<stop stop-color="#E61D2E"/>
<stop offset="0.2" stop-color="#DC1E39"/>
<stop offset="0.56" stop-color="#C32157"/>
<stop offset="1" stop-color="#9C2583"/>
</linearGradient>
<linearGradient id="paint3_linear_636_12705" x1="26.6779" y1="232.034" x2="140.063" y2="42.6585" gradientUnits="userSpaceOnUse">
<stop stop-color="#E61D2E"/>
<stop offset="1" stop-color="#9C2583"/>
</linearGradient>
<linearGradient id="paint4_linear_636_12705" x1="52.6577" y1="264.526" x2="180.493" y2="63.9596" gradientUnits="userSpaceOnUse">
<stop stop-color="#E61D2E"/>
<stop offset="0.2" stop-color="#DC1E39"/>
<stop offset="0.56" stop-color="#C32157"/>
<stop offset="1" stop-color="#9C2583"/>
</linearGradient>
<linearGradient id="paint5_linear_636_12705" x1="138.721" y1="228.625" x2="209.212" y2="139.773" gradientUnits="userSpaceOnUse">
<stop stop-color="#E61D2E"/>
<stop offset="0.2" stop-color="#DC1E39"/>
<stop offset="0.56" stop-color="#C32157"/>
<stop offset="1" stop-color="#9C2583"/>
</linearGradient>
</defs>
</svg>
